<svg id="svg" xmlns="http://www.w3.org/2000/svg" xmlns:xlink="http://www.w3.org/1999/xlink" width="400" height="400" viewBox="0, 0, 400,400"><g id="svgg"><circle xmlns="http://www.w3.org/2000/svg" cx="200" cy="200" r="200" fill="white"/><path id="path0" d="M127.333 53.511 C 111.706 56.867,105.086 62.081,108.884 68.043 C 111.723 72.500,119.449 72.902,145.714 69.962 L 162.286 68.107 162.286 82.878 L 162.286 97.649 150.286 99.090 C 143.686 99.883,135.200 100.546,131.429 100.564 C 111.624 100.659,97.082 111.776,105.609 120.303 C 108.589 123.283,111.179 123.476,121.443 121.487 C 128.192 120.179,140.143 118.437,148.000 117.616 L 162.286 116.123 162.286 133.348 C 162.286 148.277,161.752 150.556,158.286 150.448 C 145.210 150.039,113.158 155.741,109.396 159.145 C 101.418 166.365,107.839 175.123,119.382 172.764 C 122.236 172.181,132.599 171.080,142.411 170.317 L 160.251 168.929 158.737 183.322 C 154.080 227.584,139.098 279.865,116.848 329.496 C 101.476 363.787,101.426 363.967,106.140 367.879 C 121.614 380.722,159.249 290.087,171.433 210.632 C 174.065 193.470,176.672 177.239,177.226 174.563 C 178.173 169.988,179.915 169.634,206.260 168.663 C 225.502 167.954,237.082 166.425,243.208 163.785 C 248.115 161.670,252.489 160.298,252.926 160.736 C 257.039 164.848,264.382 250.177,267.004 324.329 C 268.751 373.739,271.077 380.706,281.583 368.000 C 290.334 357.416,285.055 232.339,273.034 165.467 C 269.300 144.699,269.304 144.623,274.541 134.609 C 286.878 111.017,280.432 74.124,261.714 61.202 C 246.028 50.372,163.856 45.669,127.333 53.511 M242.072 71.613 C 256.129 75.344,260.914 82.614,262.124 102.077 C 263.477 123.861,261.468 125.828,248.206 115.705 C 235.606 106.087,219.969 100.981,197.143 99.031 L 180.571 97.615 180.571 83.093 L 180.571 68.571 206.286 68.755 C 220.429 68.857,236.532 70.142,242.072 71.613 M225.699 123.394 C 232.012 126.110,239.944 131.220,243.327 134.751 L 249.477 141.171 238.453 145.057 C 232.124 147.287,216.812 149.495,202.503 150.240 L 177.578 151.538 179.075 144.055 C 179.898 139.939,180.571 131.923,180.571 126.242 L 180.571 115.912 197.396 117.184 C 206.907 117.903,219.211 120.603,225.699 123.394 " stroke="none" fill="#000000" fill-rule="evenodd"></path></g></svg>