<?xml version="1.0" standalone="no"?><!DOCTYPE svg PUBLIC "-//W3C//DTD SVG 1.1//EN" "http://www.w3.org/Graphics/SVG/1.1/DTD/svg11.dtd"><svg class="icon" width="200px" height="200.00px" viewBox="0 0 1024 1024" version="1.1" xmlns="http://www.w3.org/2000/svg"><path d="M782.4 926.8H254c-40.1 0-72.8-32.7-72.8-72.8V169.6c0-40.1 32.7-72.8 72.8-72.8h372.5c19.2 0 38 7.8 51.4 21.4l156 156c13.8 13.8 21.3 32 21.3 51.5V854c0 40.1-32.7 72.8-72.8 72.8zM254 146.8c-12.6 0-22.8 10.2-22.8 22.8V854c0 12.6 10.2 22.8 22.8 22.8h528.4c12.6 0 22.8-10.2 22.8-22.8V325.6c0-6.1-2.4-11.8-6.7-16.1L642.4 153.4c-4.1-4.2-9.9-6.6-15.9-6.6H254z"  /><path d="M815.6 331H672.9c-28.5 0-51.6-23.1-51.6-51.6V133.1c0-13.8 11.2-25 25-25s25 11.2 25 25v146.3c0 0.9 0.7 1.6 1.6 1.6h142.7c13.8 0 25 11.2 25 25s-11.2 25-25 25z"  /><path d="M556.9 546.9H390.4c-13.8 0-25-11.2-25-25s11.2-25 25-25h166.5c13.8 0 25 11.2 25 25s-11.2 25-25 25zM524.8 665.9H390.4c-13.8 0-25-11.2-25-25s11.2-25 25-25h134.4c13.8 0 25 11.2 25 25s-11.2 25-25 25zM644.8 427.9H390.4c-13.8 0-25-11.2-25-25s11.2-25 25-25h254.4c13.8 0 25 11.2 25 25s-11.2 25-25 25z" fill="#c4c4c4" /><path d="M699.5 825.2c-3.8 0-7.5-0.7-11.1-2.1l-51.1-19.5-50.6 19.5c-9.5 3.7-20.1 2.5-28.5-3.2-8.4-5.7-13.5-15.3-13.5-25.5v-134c0-13.8 11.2-25 25-25s25 11.2 25 25v106l32-12.3c7-2.5 14.7-2.4 21.6 0.2l31.9 12.2v-97.7c0-13.8 11.2-25 25-25s25 11.2 25 25v125.6c0 10.2-5 19.7-13.5 25.5-5.1 3.5-11.1 5.3-17.2 5.3z m-69-24.3c0 0.1 0 0.1 0 0z"  /><path d="M638.6 711.3c-67.9 0-123.2-55.3-123.2-123.2s55.3-123.2 123.2-123.2 123.2 55.3 123.2 123.2-55.3 123.2-123.2 123.2z m0-196.4c-40.4 0-73.2 32.8-73.2 73.2s32.8 73.2 73.2 73.2 73.2-32.8 73.2-73.2-32.8-73.2-73.2-73.2z"  /></svg>