<?xml version="1.0" standalone="no"?><!DOCTYPE svg PUBLIC "-//W3C//DTD SVG 1.1//EN" "http://www.w3.org/Graphics/SVG/1.1/DTD/svg11.dtd"><svg class="icon" width="200px" height="200.00px" viewBox="0 0 1024 1024" version="1.1" xmlns="http://www.w3.org/2000/svg"><path d="M314 790.6c-5 0-9.8-0.6-14.4-1.6-16.6-4-28.8-15-33.2-30.4-5.2-18.2-1.8-50 44.6-97.4 34.4-35.2 84.4-60 132-77 15.2-31 31.2-63.6 44-88.4 5.6-10.8 10.8-21.4 15.4-32-26-57.6-39.6-121.2-38.2-168 0.8-30 17.8-58.4 42.2-70.4 17.6-8.8 36.4-7.6 51 3 16.4 11.8 34.2 40.4 24.6 108.8-5.6 40.4-17.6 82.6-35.6 126 12.4 24.6 27.4 47.2 44.4 65.4 6 6.4 11.6 12.2 17 17.8 64-7.8 123.6-7 164.6 2.4 46.4 10.8 58 37.6 53 59-7 30.8-45.6 53.4-86.2 53.4-7.4 0-15-0.8-22.2-2.4-45.4-9.8-79-28.2-123.2-70.4-15.6 2.2-31.4 5-47 8.2-26.6 5.6-51.8 12.2-75.2 20-8.8 18.2-17 35.2-23.8 49-4 8.2-7.4 15.4-10.2 21.2-10.8 22.4-25.6 43.2-44.8 64.2-23.2 25-52.8 39.6-78.8 39.6z m102.8-152.6c-32.6 15.2-59 32.4-77.2 51-31.6 32.2-36.6 52.2-34.8 58.2 0.2 0.6 0.6 1.8 4 2.6 10 2.4 32.8-2.8 54.8-26.4 16.6-17.8 29-35.8 38.2-54.4 2.8-5.8 6.2-12.8 10.2-21 1.6-3.2 3.2-6.4 4.8-10z m231-55.4c28.6 22.8 50.6 31.2 77.8 37 22.2 4.8 43.4-2.6 54.6-12.2 5.6-4.8 6.6-8.2 6.6-8.8-0.4-1.2-5.4-6.8-23.2-11-29.2-6.8-70.2-8.4-115.8-5z m-122-74.6c-1 2-2 4-3.2 6.2-8 15.6-17.4 34.2-27 53.6 16-4.2 30.6-7.6 43.2-10.2 7-1.4 13.8-2.8 20.8-4-12.4-13.6-23.6-29-33.8-45.6z m-20.8-3z m25.2-245.6c-1.8 0-3.8 0.6-6 1.6-9.2 4.6-19.4 17.6-19.8 35.6-0.8 31.2 6.2 71.8 19.8 112.2 8.8-26.6 15-52.4 18.4-77.4 8-57.2-6.6-69.6-8.4-70.8-1.2-0.8-2.6-1.2-4-1.2z" fill="#262435" /><path d="M764.6 959.4H323.4c-81.2 0-147.4-66-147.4-147.4V212c0-81.2 66-147.4 147.4-147.4h399.2c5.4 0 10.4 2.2 14.2 5.8l169.2 169.2c3.8 3.8 5.8 8.8 5.8 14.2v558c0.2 81.4-66 147.6-147.2 147.6zM323.4 104.6c-59.2 0-107.4 48.2-107.4 107.4v600c0 59.2 48.2 107.4 107.4 107.4h441.2c59.2 0 107.4-48.2 107.4-107.4V262.2l-157.6-157.6H323.4z" fill="#262435" /><path d="M892 288.2h-42c-81.2 0-147.4-66-147.4-147.4V84.6c0-11 9-20 20-20s20 9 20 20v56.2c0 59.2 48.2 107.4 107.4 107.4h42c11 0 20 9 20 20s-9 20-20 20z" fill="#262435" /></svg>